<?xml version="1.0" encoding="UTF-8" standalone="no"?>
<!DOCTYPE svg PUBLIC "-//W3C//DTD SVG 1.1//EN" "http://www.w3.org/Graphics/SVG/1.1/DTD/svg11.dtd">
<svg width="456" height="456" viewBox="0 0 228 228" version="1.1" xmlns="http://www.w3.org/2000/svg" xmlns:xlink="http://www.w3.org/1999/xlink" xml:space="preserve" xmlns:serif="http://www.serif.com/" style="fill-rule:evenodd;clip-rule:evenodd;stroke-linejoin:round;stroke-miterlimit:2;">
    <linearGradient id="prefix__a" x1="0" y1="0%">
        <stop offset="0%" stop-color="#FFD50A" class="prefix__stop-1" />
        <stop offset="100%" stop-color="#FF3D30" class="prefix__stop-2" />
    </linearGradient>
    <path
        d="M520 600c47-6 100-16 118-21 44-15 99-63 122-109 35-68 53-247 28-267-12-10-268-36-276-29-2 2-4 44-5 94-2 105-17 132-74 132h-33V280c0-66-4-120-8-120-16 0-227-20-264-25l-38-5v480h173c95 0 211-5 257-10zM665 90c-3-5-24-15-45-21-22-7-40-15-40-19s20-15 43-24c76-29 110-83 123-193 6-60 6-62-17-67-25-5-242-26-273-26-16 0-18 9-15 91 4 103 2 107-73 108l-38 1v-105c0-100-1-105-22-109-48-10-279-27-288-21C5-286 7 37 22 46c12 8 496 50 596 53 32 0 51-3 47-9zm103-494c-7-80-39-142-89-168-51-26-211-39-439-36l-195 3v200l145 13c106 10 149 11 162 3 25-15 48-14 83 6 26 14 195 37 309 42l29 1-5-64z"
        transform="matrix(.1 0 0 -.1 78.375 114)" fill="url(#prefix__a)" />
</svg>